<svg xmlns="http://www.w3.org/2000/svg" xmlns:xlink="http://www.w3.org/1999/xlink" width="500" zoomAndPan="magnify" viewBox="0 0 375 374.999991" height="500" preserveAspectRatio="xMidYMid meet" version="1.0"><defs><g/><clipPath id="e56fe95936"><path d="M 45.484375 203.375 L 306.378906 203.375 L 306.378906 237.007812 L 45.484375 237.007812 Z M 45.484375 203.375 " clip-rule="nonzero"/></clipPath></defs><rect x="-37.5" width="450" fill="#ffffff" y="-37.499999" height="449.999989" fill-opacity="1"/><rect x="-37.5" width="450" fill="#ebe8e8" y="-37.499999" height="449.999989" fill-opacity="1"/><g fill="#231f20" fill-opacity="1"><g transform="translate(67.514354, 294.444858)"><g><path d="M 0 0 L 0 -2.15625 C 2.726562 -2.15625 5.347656 -4.097656 7.859375 -7.984375 C 10.378906 -11.867188 12.753906 -16.828125 14.984375 -22.859375 C 17.210938 -28.898438 19.257812 -35.300781 21.125 -42.0625 C 23 -48.820312 24.65625 -55.078125 26.09375 -60.828125 C 29.832031 -75.347656 33.25 -88.753906 36.34375 -101.046875 C 39.4375 -113.347656 42.382812 -125.140625 45.1875 -136.421875 C 47.988281 -147.710938 50.789062 -159.003906 53.59375 -170.296875 C 56.40625 -181.585938 59.390625 -193.414062 62.546875 -205.78125 C 65.710938 -218.144531 69.09375 -231.519531 72.6875 -245.90625 L 144.09375 -245.90625 C 147.832031 -231.519531 151.242188 -218.144531 154.328125 -205.78125 C 157.421875 -193.414062 160.40625 -181.585938 163.28125 -170.296875 C 166.15625 -159.003906 169.03125 -147.710938 171.90625 -136.421875 C 174.789062 -125.140625 177.738281 -113.347656 180.75 -101.046875 C 183.769531 -88.753906 187.082031 -75.347656 190.6875 -60.828125 C 192.125 -55.078125 193.773438 -48.820312 195.640625 -42.0625 C 197.515625 -35.300781 199.566406 -28.898438 201.796875 -22.859375 C 204.023438 -16.828125 206.394531 -11.867188 208.90625 -7.984375 C 211.425781 -4.097656 214.050781 -2.15625 216.78125 -2.15625 L 216.78125 0 L 108.5 0 L 108.5 -2.15625 C 113.820312 -6.1875 117.238281 -12.007812 118.75 -19.625 C 120.257812 -27.25 120.617188 -35.914062 119.828125 -45.625 C 119.035156 -55.332031 117.5625 -65.21875 115.40625 -75.28125 L 54.578125 -75.28125 C 56.015625 -58.601562 59.351562 -44.078125 64.59375 -31.703125 C 69.84375 -19.335938 77.503906 -9.488281 87.578125 -2.15625 L 87.578125 0 Z M 74.640625 -238.5625 C 67.441406 -207.070312 61.9375 -177.953125 58.125 -151.203125 C 54.320312 -124.460938 53.066406 -100.59375 54.359375 -79.59375 L 114.53125 -79.59375 C 113.238281 -85.195312 111.910156 -90.695312 110.546875 -96.09375 C 109.179688 -101.488281 107.921875 -106.628906 106.765625 -111.515625 C 104.179688 -121.585938 101.878906 -130.578125 99.859375 -138.484375 C 97.847656 -146.390625 95.941406 -153.898438 94.140625 -161.015625 C 92.347656 -168.140625 90.515625 -175.4375 88.640625 -182.90625 C 86.773438 -190.382812 84.726562 -198.582031 82.5 -207.5 C 80.269531 -216.414062 77.648438 -226.769531 74.640625 -238.5625 Z M 74.640625 -238.5625 "/></g></g></g><g clip-path="url(#e56fe95936)"><path fill="#ebe8e8" d="M 45.484375 203.375 L 306.394531 203.375 L 306.394531 237.007812 L 45.484375 237.007812 Z M 45.484375 203.375 " fill-opacity="1" fill-rule="nonzero"/></g></svg>